# xmcd
#
# Track frame offsets: 
#        150
#        24253
#        46825
#        66612
#        90923
#        118261
#        138957
#        159311
#        184285
#        203342
#
# Disc length: 3073 seconds
#
# Revision: 0
# Processed by: cddbd v1.5.2PL0 Copyright (c) Steve Scherf et al.
# Submitted via: ExactAudioCopy v1.0b3
#
DISCID=7d0bff0a
DTITLE=Truong Vu - Tinh Ban Tinh Linh
DYEAR=2001
DGENRE=
TTITLE0=Nho ve mot mua Xuan
TTITLE1=Thiep hong anh viet ten em
TTITLE2=Xuan tha huong Xuan lac xu
TTITLE3=Tinh ban tinh linh (Gap ban)
TTITLE4=Mua Xuan cua Me
TTITLE5=Bai ca ky niem
TTITLE6=Mua Xuan trong thu em
TTITLE7=Ky niem
TTITLE8=Don Xuan nay nho Xuan xua
TTITLE9=Ly ca phe cuoi cung
EXTD=
EXTT0=
EXTT1=
EXTT2=
EXTT3=
EXTT4=
EXTT5=
EXTT6=
EXTT7=
EXTT8=
EXTT9=
PLAYORDER=
